{"title":"Filmistaan (2014) - 720p - iTunes HDRip - x264 - AC3 5.1 -={SPAR","uid":12048892,"size":969671292,"categoryP":"video","categoryS":"movies","magnet":"?xt=urn:btih:a9d17eed860b3d630ec57cc1358614cce9808245&amp;dn=Filmistaan+%282014%29+-+720p+-+iTunes+HDRip+-+x264+-+AC3+5.1+-%3D%7BSPAR&amp;tr=udp%3A%2F%2Ftracker.openbittorrent.com%3A80&amp;tr=udp%3A%2F%2Fopen.demonii.com%3A1337&amp;tr=udp%3A%2F%2Ftracker.coppersurfer.tk%3A6969&amp;tr=udp%3A%2F%2Fexodus.desync.com%3A6969","seeders":3,"leechers":0,"uploader":"SS132203","files":2,"time":1434959738,"description":"Filmistaan (2014) - 720p - iTunes HDRip - x264 - AC3 5.1 -={SPARROW}=- \n &lt;a href=&quot;\nhttp://imgsparrow.co/image/f4&quot; rel=&quot;nofollow&quot; target=&quot;_NEW&quot;&gt;\nhttp://imgsparrow.co/image/f4&lt;/a&gt;\n &lt;a href=&quot;\nhttp://imgsparrow.co/image/QS&quot; rel=&quot;nofollow&quot; target=&quot;_NEW&quot;&gt;\nhttp://imgsparrow.co/image/QS&lt;/a&gt;\n\nInfo : - \n\nSOURCE: 1080p iTunes HD Team Telly ( Thanks a Ton)\n\nFormat                      : Matroska\nFormat version              : Version 2\nFile size                   : 925 MiB\nDuration                    : 1h 45mn\nOverall bit rate            : 1 227 Kbps\nWriting application         : HandBrake 0.10.1 2015030800\nWriting library             : Lavf55.12.0\n\nVideo\nID                          : 1\nFormat                      : AVC\nFormat/Info                 : Advanced Video Codec\nFormat profile              : &lt;a class=&quot;__cf_email__&quot; href=&quot;/cdn-cgi/l/email-protection&quot; data-cfemail=&quot;266b474f48666a120817&quot;&gt;[email&amp;#160;protected]&lt;/a&gt;&lt;script data-cfhash='f9e31' type=&quot;text/javascript&quot;&gt;\n/* &lt;![CDATA[ */!function(){try{var t=&quot;currentScript&quot;in document?document.currentScript:function(){for(var t=document.getElementsByTagName(&quot;script&quot;),e=t.length;e--;)if(t[e].getAttribute(&quot;data-cfhash&quot;))return t[e]}();if(t&amp;&amp;t.previousSibling){var e,r,n,i,c=t.previousSibling,a=c.getAttribute(&quot;data-cfemail&quot;);if(a){for(e=&quot;&quot;,r=parseInt(a.substr(0,2),16),n=2;a.length-n;n+=2)i=parseInt(a.substr(n,2),16)^r,e+=String.fromCharCode(i);e=document.createTextNode(e),c.parentNode.replaceChild(e,c)}t.parentNode.removeChild(t);}}catch(u){}}()/* ]]&gt; */&lt;/script&gt;\nFormat settings, CABAC      : Yes\nFormat settings, ReFrames   : 4 frames\nCodec ID                    : V_MPEG4/ISO/AVC\nDuration                    : 1h 45mn\nBit rate                    : 1 000 Kbps\nWidth                       : 1 280 pixels\nHeight                      : 536 pixels\nDisplay aspect ratio        : 2.40:1\nFrame rate mode             : Constant\nFrame rate                  : 25.000 fps\nColor space                 : YUV\nChroma subsampling          : 4:2:0\nBit depth                   : 8 bits\nScan type                   : Progressive\nBits/(Pixel*Frame)          : 0.058\nStream size                 : 738 MiB (80%)\nWriting library             : x264 core 142 r2479 dd79a61\nDefault                     : Yes\nForced                      : No\nColor range                 : Limited\nColor primaries             : BT.709\nTransfer characteristics    : BT.709\nMatrix coefficients         : BT.709\n\nAudio\nID                          : 2\nFormat                      : AC-3\nFormat/Info                 : Audio Coding 3\nMode extension              : CM (complete main)\nFormat settings, Endianness : Big\nCodec ID                    : A_AC3\nDuration                    : 1h 45mn\nBit rate mode               : Constant\nBit rate                    : 224 Kbps\nChannel(s)                  : 6 channels\nChannel positions           : Front: L C R, Side: L R, LFE\nSampling rate               : 48.0 KHz\nCompression mode            : Lossy\nDelay relative to video     : 27ms\nStream size                 : 169 MiB (18%)\nTitle                       : Surround\nLanguage                    : Hindi\nDefault                     : Yes\nForced                      : No\n\nMenu\n00:00:00.000                : :1\n00:01:21.080                : :2\n00:05:08.120                : :3\n00:49:56.120                : :4\n00:57:56.080                : :5\n01:42:13.080                : :6\n01:42:23.080                : :7\n\nScreens : - \n &lt;a href=&quot;\nhttp://imgsparrow.co/image/fq&quot; rel=&quot;nofollow&quot; target=&quot;_NEW&quot;&gt;\nhttp://imgsparrow.co/image/fq&lt;/a&gt; &lt;a href=&quot;\nhttp://imgsparrow.co/image/fz&quot; rel=&quot;nofollow&quot; target=&quot;_NEW&quot;&gt;\nhttp://imgsparrow.co/image/fz&lt;/a&gt; &lt;a href=&quot;\nhttp://imgsparrow.co/image/f7&quot; rel=&quot;nofollow&quot; target=&quot;_NEW&quot;&gt;\nhttp://imgsparrow.co/image/f7&lt;/a&gt; &lt;a href=&quot;\nhttp://imgsparrow.co/image/fk&quot; rel=&quot;nofollow&quot; target=&quot;_NEW&quot;&gt;\nhttp://imgsparrow.co/image/fk&lt;/a&gt; &lt;a href=&quot;\nhttp://imgsparrow.co/image/fn&quot; rel=&quot;nofollow&quot; target=&quot;_NEW&quot;&gt;\nhttp://imgsparrow.co/image/fn&lt;/a&gt; &lt;a href=&quot;\nhttp://imgsparrow.co/image/fy&quot; rel=&quot;nofollow&quot; target=&quot;_NEW&quot;&gt;\nhttp://imgsparrow.co/image/fy&lt;/a&gt; &lt;a href=&quot;\nhttp://imgsparrow.co/image/f5&quot; rel=&quot;nofollow&quot; target=&quot;_NEW&quot;&gt;\nhttp://imgsparrow.co/image/f5&lt;/a&gt; &lt;a href=&quot;\nhttp://imgsparrow.co/image/fA&quot; rel=&quot;nofollow&quot; target=&quot;_NEW&quot;&gt;\nhttp://imgsparrow.co/image/fA&lt;/a&gt; &lt;a href=&quot;\nhttp://imgsparrow.co/image/fQ&quot; rel=&quot;nofollow&quot; target=&quot;_NEW&quot;&gt;\nhttp://imgsparrow.co/image/fQ&lt;/a&gt; &lt;a href=&quot;\nhttp://imgsparrow.co/image/fZ&quot; rel=&quot;nofollow&quot; target=&quot;_NEW&quot;&gt;\nhttp://imgsparrow.co/image/fZ&lt;/a&gt;\n &lt;a href=&quot;\nhttp://imgsparrow.co/image/N2&quot; rel=&quot;nofollow&quot; target=&quot;_NEW&quot;&gt;\nhttp://imgsparrow.co/image/N2&lt;/a&gt;","torrent":{"xt":"urn:btih:a9d17eed860b3d630ec57cc1358614cce9808245","amp;dn":"Filmistaan+%282014%29+-+720p+-+iTunes+HDRip+-+x264+-+AC3+5.1+-%3D%7BSPAR","amp;tr":["udp%3A%2F%2Ftracker.openbittorrent.com%3A80","udp%3A%2F%2Fopen.demonii.com%3A1337","udp%3A%2F%2Ftracker.coppersurfer.tk%3A6969","udp%3A%2F%2Fexodus.desync.com%3A6969"],"infoHash":"a9d17eed860b3d630ec57cc1358614cce9808245","infoHashBuffer":{"type":"Buffer","data":[169,209,126,237,134,11,61,99,14,197,124,193,53,134,20,204,233,128,130,69]},"announce":[],"urlList":[]}}